<?xml version="1.0" standalone="no"?>
<!DOCTYPE svg PUBLIC "-//W3C//DTD SVG 20010904//EN"
 "http://www.w3.org/TR/2001/REC-SVG-20010904/DTD/svg10.dtd">
<svg version="1.0" xmlns="http://www.w3.org/2000/svg"
 width="700.000000pt" height="700.000000pt" viewBox="0 0 700.000000 700.000000"
 preserveAspectRatio="xMidYMid meet">
<metadata>
Created by potrace 1.11, written by Peter Selinger 2001-2013
</metadata>
<g transform="translate(0.000000,700.000000) scale(0.100000,-0.100000)"
fill="#000000" stroke="none">
<path d="M1850 6332 c0 -7 -16 -46 -35 -88 -19 -41 -35 -77 -35 -79 0 -2 -15
-36 -34 -77 -19 -40 -50 -109 -69 -153 -19 -44 -44 -100 -55 -125 -30 -66 -61
-137 -135 -305 l-65 -150 0 -255 c-1 -140 -1 -262 -1 -271 -1 -15 -35 -17
-381 -15 -209 0 -380 -1 -381 -4 -1 -3 -2 -150 -3 -327 0 -208 3 -324 9 -326
6 -1 176 -2 378 -2 202 1 370 -2 373 -7 4 -7 8 -1452 5 -1603 l-1 -30 -379 0
c-373 0 -380 0 -383 -20 -2 -11 -3 -157 -3 -325 l1 -305 382 -3 382 -2 1 -103
c0 -56 1 -326 1 -599 0 -455 2 -498 17 -499 51 -3 829 -4 842 -1 15 3 16 52
17 505 0 276 1 546 1 600 l1 97 380 0 380 0 1 -92 c0 -51 1 -321 1 -600 0
-368 4 -508 12 -509 48 -4 850 -3 856 1 4 3 8 212 8 465 0 253 1 522 1 598 l1
137 380 0 380 0 1 -72 c0 -40 1 -310 2 -600 0 -369 4 -528 11 -529 6 0 203 -2
438 -2 l428 -2 0 485 c-1 267 -1 538 0 603 l0 117 383 0 382 0 -2 322 c0 178
-1 325 -2 328 -1 3 -170 5 -377 5 -207 0 -378 3 -380 7 -4 6 -5 445 -4 1368
l0 266 382 0 382 0 1 315 c0 172 -1 321 -3 329 -3 13 -52 15 -383 13 l-379 -2
0 47 c0 26 -1 149 -1 273 l0 226 -218 492 -219 492 -20 -43 c-12 -24 -110
-241 -218 -483 l-197 -440 -3 -265 c-1 -146 -3 -273 -3 -282 -1 -15 -32 -17
-381 -16 -272 0 -380 4 -381 12 0 6 -1 133 -2 281 l-3 270 -128 285 c-70 157
-139 310 -153 340 -14 30 -43 96 -65 145 -75 170 -82 185 -90 185 -5 0 -11 -8
-14 -17 -3 -10 -19 -46 -35 -80 -16 -35 -29 -65 -29 -68 0 -2 -15 -37 -34 -77
-18 -40 -57 -127 -86 -193 -29 -66 -60 -138 -70 -160 -49 -109 -148 -332 -156
-350 -4 -11 -9 -132 -10 -270 -1 -137 -3 -262 -3 -277 l-1 -26 -382 0 -383 0
1 273 2 272 -55 124 c-29 68 -62 142 -72 164 -10 22 -83 184 -161 360 -133
302 -160 356 -160 327z m1205 -2184 c5 -5 11 -1509 6 -1613 -1 -20 -8 -20
-381 -20 -373 0 -380 0 -381 20 -1 26 -1 1366 0 1511 l1 110 374 0 c206 -1
377 -4 381 -8z m1646 -88 c4 -391 3 -1509 -1 -1525 -5 -20 -13 -20 -382 -20
-330 0 -378 2 -379 15 -1 19 -1 1403 0 1531 l1 95 380 0 380 0 1 -96z"/>
</g>
</svg>
